{"title":"Autopsy 2008 DVDrip English Klam","uid":6648579,"size":1386066727,"categoryP":"video","categoryS":"movies","magnet":"?xt=urn:btih:23f74d90a241a718da564a9b64818a2582ec693c&amp;dn=Autopsy+2008+DVDrip+English+Klam&amp;tr=udp%3A%2F%2Ftracker.openbittorrent.com%3A80&amp;tr=udp%3A%2F%2Fopen.demonii.com%3A1337&amp;tr=udp%3A%2F%2Ftracker.coppersurfer.tk%3A6969&amp;tr=udp%3A%2F%2Fexodus.desync.com%3A6969","seeders":1,"leechers":0,"uploader":"Klambake","files":-1,"time":1315045260,"description":"With: Ashley Schneider, Robert Patrick en Jessica Lowndes\n\nEen groepje vrienden krijgt op reis een aanrijding met een vreemde, gehavende man. Al snel arriveert de ambulance om hen en de man mee te nemen naar het ziekenhuis. Wanneer ze in het mysterieus en verlaten uitziende ziekenhuis aankomen, worden ze ÃƒÂ©ÃƒÂ©n voor ÃƒÂ©ÃƒÂ©n onderzocht. Dan ontdekken ze dat het geen gewoon ziekenhuis is en dat de arts en zijn assistenten er vreemde praktijken op nahouden...\n\nA young woman tries to find her injured boyfriend in a bizzare and dangerous hospital. \n\n------------------ Dutch Friends ------------------\nYou can find my Friends at: http://www.Film-Test.nl \n------ They got my dutchs subs ---- and more ------\n\nGeneral:\n\nComplete name                    : Autopsy\\Autopsy.avi\nFormat                           : AVI\nFormat/Info                      : Audio Video Interleave\nFile size                        : 1.29 GiB\nDuration                         : 1h 20mn\nOverall bit rate                 : 2 294 Kbps\n\nVideo:\n\nFormat                           : MPEG-4 Visual\nFormat profile                   : Simple@L3\nFormat settings, BVOP            : No\nFormat settings, QPel            : No\nFormat settings, GMC             : No warppoints\nFormat settings, Matrix          : Default (H.263)\nCodec ID                         : XVID\nCodec ID/Hint                    : XviD\nDuration                         : 1h 20mn\nBit rate                         : 1 835 Kbps\nWidth                            : 652 pixels\nHeight                           : 352 pixels\nDisplay aspect ratio             : 1.852\nFrame rate                       : 25.000 fps\nColor space                      : YUV\nChroma subsampling               : 4:2:0\nBit depth                        : 8 bits\nScan type                        : Progressive\nBits/(Pixel*Frame)               : 0.320\nStream size                      : 1.03 GiB (80%)\nWriting library                  : XviD 1.1.2 (UTC 2006-11-01)\n\nAudio:\n\nFormat                           : AC-3\nFormat/Info                      : Audio Coding 3\nMode extension                   : CM (complete main)\nCodec ID                         : 2000\nDuration                         : 1h 20mn\nBit rate mode                    : Constant\nBit rate                         : 448 Kbps\nChannel(s)                       : 6 channels\nChannel positions                : Front: L C R, Side: L R, LFE\nSampling rate                    : 48.0 KHz\nBit depth                        : 16 bits\nStream size                      : 258 MiB (20%)\nAlignment                        : Aligned on interleaves\nInterleave, duration             : 32 ms (0.80 video frame)\nInterleave, preload duration     : 160 ms\n\n\n","torrent":{"xt":"urn:btih:23f74d90a241a718da564a9b64818a2582ec693c","amp;dn":"Autopsy+2008+DVDrip+English+Klam","amp;tr":["udp%3A%2F%2Ftracker.openbittorrent.com%3A80","udp%3A%2F%2Fopen.demonii.com%3A1337","udp%3A%2F%2Ftracker.coppersurfer.tk%3A6969","udp%3A%2F%2Fexodus.desync.com%3A6969"],"infoHash":"23f74d90a241a718da564a9b64818a2582ec693c","infoHashBuffer":{"type":"Buffer","data":[35,247,77,144,162,65,167,24,218,86,74,155,100,129,138,37,130,236,105,60]},"announce":[],"urlList":[]}}